<mxfile host="app.diagrams.net" agent="Mozilla/5.0 (Windows NT 10.0; Win64; x64) AppleWebKit/537.36 (KHTML, like Gecko) Chrome/137.0.0.0 Safari/537.36" version="27.1.4">
  <diagram name="Page-1" id="3AwLQQtYsRxn9__lG-Fi">
    <mxGraphModel dx="2852" dy="1486" grid="1" gridSize="10" guides="1" tooltips="1" connect="1" arrows="1" fold="1" page="1" pageScale="1" pageWidth="1654" pageHeight="1169" math="0" shadow="0">
      <root>
        <mxCell id="0" />
        <mxCell id="1" parent="0" />
        <mxCell id="36SUy_8lJJQq4IlT1b3T-1" value="" style="verticalLabelPosition=bottom;html=1;verticalAlign=top;align=center;shape=mxgraph.floorplan.wall;fillColor=strokeColor;" parent="1" vertex="1">
          <mxGeometry x="40" y="122" width="2970.0026686057595" height="9.166666666666668" as="geometry" />
        </mxCell>
        <mxCell id="36SUy_8lJJQq4IlT1b3T-3" value="" style="verticalLabelPosition=bottom;html=1;verticalAlign=top;align=center;shape=mxgraph.floorplan.wall;fillColor=strokeColor;rotation=90;" parent="1" vertex="1">
          <mxGeometry x="-998.6942666205425" y="1163.4525" width="2086.564374819093" height="9.166666666666668" as="geometry" />
        </mxCell>
        <mxCell id="36SUy_8lJJQq4IlT1b3T-4" value="" style="verticalLabelPosition=bottom;html=1;verticalAlign=top;align=center;shape=mxgraph.floorplan.wall;fillColor=strokeColor;" parent="1" vertex="1">
          <mxGeometry x="40" y="2202.83" width="2980" height="9.17" as="geometry" />
        </mxCell>
        <mxCell id="36SUy_8lJJQq4IlT1b3T-5" value="" style="verticalLabelPosition=bottom;html=1;verticalAlign=top;align=center;shape=mxgraph.floorplan.wallCorner;fillColor=strokeColor;direction=north" parent="1" vertex="1">
          <mxGeometry x="40" y="2120.3333333333335" width="91.66674903104196" height="91.66666666666669" as="geometry" />
        </mxCell>
        <mxCell id="36SUy_8lJJQq4IlT1b3T-6" value="" style="verticalLabelPosition=bottom;html=1;verticalAlign=top;align=center;shape=mxgraph.floorplan.wallCorner;fillColor=strokeColor;" parent="1" vertex="1">
          <mxGeometry x="40" y="122" width="91.66674903104196" height="91.66666666666669" as="geometry" />
        </mxCell>
        <mxCell id="36SUy_8lJJQq4IlT1b3T-7" value="" style="verticalLabelPosition=bottom;html=1;verticalAlign=top;align=center;shape=mxgraph.floorplan.wallCorner;fillColor=strokeColor;direction=south;" parent="1" vertex="1">
          <mxGeometry x="2927.5025944778217" y="122" width="91.66674903104196" height="91.66666666666669" as="geometry" />
        </mxCell>
        <mxCell id="36SUy_8lJJQq4IlT1b3T-15" value="" style="verticalLabelPosition=bottom;html=1;verticalAlign=top;align=center;shape=mxgraph.floorplan.doorRight;aspect=fixed;rotation=-90;" parent="1" vertex="1">
          <mxGeometry x="3015.28" y="208.39" width="187.82" height="199.56" as="geometry" />
        </mxCell>
        <mxCell id="36SUy_8lJJQq4IlT1b3T-17" value="" style="verticalLabelPosition=bottom;html=1;verticalAlign=top;align=center;shape=mxgraph.floorplan.doorRight;aspect=fixed;rotation=-90;" parent="1" vertex="1">
          <mxGeometry x="3018.9999999999995" y="740" width="197.82" height="210.19" as="geometry" />
        </mxCell>
        <mxCell id="36SUy_8lJJQq4IlT1b3T-18" value="" style="verticalLabelPosition=bottom;html=1;verticalAlign=top;align=center;shape=mxgraph.floorplan.wall;fillColor=strokeColor;direction=south;" parent="1" vertex="1">
          <mxGeometry x="3008.28" y="399" width="10" height="350" as="geometry" />
        </mxCell>
        <mxCell id="36SUy_8lJJQq4IlT1b3T-19" value="" style="verticalLabelPosition=bottom;html=1;verticalAlign=top;align=center;shape=mxgraph.floorplan.wall;fillColor=strokeColor;direction=south;" parent="1" vertex="1">
          <mxGeometry x="3010" y="947" width="10" height="1260" as="geometry" />
        </mxCell>
        <mxCell id="36SUy_8lJJQq4IlT1b3T-20" value="" style="endArrow=none;html=1;rounded=0;strokeWidth=5;fillColor=#fa6800;strokeColor=light-dark(#C73500,#FFF600);" parent="1" edge="1">
          <mxGeometry width="50" height="50" relative="1" as="geometry">
            <mxPoint x="560" y="80" as="sourcePoint" />
            <mxPoint x="3270" y="80" as="targetPoint" />
          </mxGeometry>
        </mxCell>
        <mxCell id="36SUy_8lJJQq4IlT1b3T-26" value="" style="endArrow=none;html=1;rounded=0;strokeWidth=5;fillColor=#fa6800;strokeColor=light-dark(#C73500,#FFF600);" parent="1" edge="1">
          <mxGeometry width="50" height="50" relative="1" as="geometry">
            <mxPoint x="400" y="200" as="sourcePoint" />
            <mxPoint x="560" y="200" as="targetPoint" />
          </mxGeometry>
        </mxCell>
        <mxCell id="36SUy_8lJJQq4IlT1b3T-27" value="&lt;font style=&quot;font-size: 24px; color: light-dark(rgb(0, 0, 0), rgb(6, 180, 255));&quot;&gt;&lt;b style=&quot;&quot;&gt;KV&lt;/b&gt;&lt;/font&gt;" style="rounded=0;whiteSpace=wrap;html=1;strokeColor=light-dark(#000000,#06B4FF);" parent="1" vertex="1">
          <mxGeometry x="290" y="170" width="110" height="60" as="geometry" />
        </mxCell>
        <mxCell id="36SUy_8lJJQq4IlT1b3T-29" value="" style="endArrow=none;html=1;rounded=0;strokeWidth=5;fillColor=#fa6800;strokeColor=light-dark(#C73500,#FF9A03);" parent="1" edge="1">
          <mxGeometry width="50" height="50" relative="1" as="geometry">
            <mxPoint x="130" y="199.23" as="sourcePoint" />
            <mxPoint x="290" y="199.23" as="targetPoint" />
          </mxGeometry>
        </mxCell>
        <mxCell id="36SUy_8lJJQq4IlT1b3T-30" value="" style="endArrow=none;html=1;rounded=0;strokeWidth=5;fillColor=#fa6800;strokeColor=light-dark(#C73500,#FF9A03);" parent="1" edge="1" source="x_T9KYsaE6YWxML6WS7I-11">
          <mxGeometry width="50" height="50" relative="1" as="geometry">
            <mxPoint x="130" y="1440" as="sourcePoint" />
            <mxPoint x="130" y="200" as="targetPoint" />
          </mxGeometry>
        </mxCell>
        <mxCell id="36SUy_8lJJQq4IlT1b3T-31" value="" style="endArrow=none;html=1;rounded=0;strokeWidth=5;fillColor=#fa6800;strokeColor=light-dark(#C73500,#FF9A03);" parent="1" edge="1">
          <mxGeometry width="50" height="50" relative="1" as="geometry">
            <mxPoint x="130" y="600" as="sourcePoint" />
            <mxPoint x="1788" y="600" as="targetPoint" />
          </mxGeometry>
        </mxCell>
        <mxCell id="36SUy_8lJJQq4IlT1b3T-34" value="" style="endArrow=none;html=1;rounded=0;strokeWidth=5;fillColor=#fa6800;strokeColor=light-dark(#C73500,#FF9A03);" parent="1" edge="1">
          <mxGeometry width="50" height="50" relative="1" as="geometry">
            <mxPoint x="320" y="720" as="sourcePoint" />
            <mxPoint x="320" y="600" as="targetPoint" />
          </mxGeometry>
        </mxCell>
        <mxCell id="36SUy_8lJJQq4IlT1b3T-36" value="" style="rounded=0;whiteSpace=wrap;html=1;strokeColor=light-dark(#000000,#06B4FF);" parent="1" vertex="1">
          <mxGeometry x="265" y="720" width="110" height="60" as="geometry" />
        </mxCell>
        <mxCell id="36SUy_8lJJQq4IlT1b3T-37" value="" style="endArrow=none;html=1;rounded=0;entryX=0;entryY=0;entryDx=0;entryDy=0;exitX=1;exitY=1;exitDx=0;exitDy=0;strokeColor=light-dark(#000000,#06B4FF);" parent="1" source="36SUy_8lJJQq4IlT1b3T-36" target="36SUy_8lJJQq4IlT1b3T-36" edge="1">
          <mxGeometry width="50" height="50" relative="1" as="geometry">
            <mxPoint x="220" y="770" as="sourcePoint" />
            <mxPoint x="270" y="720" as="targetPoint" />
          </mxGeometry>
        </mxCell>
        <mxCell id="36SUy_8lJJQq4IlT1b3T-38" value="" style="endArrow=none;html=1;rounded=0;strokeWidth=5;fillColor=#fa6800;strokeColor=light-dark(#C73500,#FF9A03);" parent="1" edge="1">
          <mxGeometry width="50" height="50" relative="1" as="geometry">
            <mxPoint x="560" y="720" as="sourcePoint" />
            <mxPoint x="560" y="600" as="targetPoint" />
          </mxGeometry>
        </mxCell>
        <mxCell id="36SUy_8lJJQq4IlT1b3T-39" value="" style="rounded=0;whiteSpace=wrap;html=1;strokeColor=light-dark(#000000,#06B4FF);" parent="1" vertex="1">
          <mxGeometry x="505" y="720" width="110" height="60" as="geometry" />
        </mxCell>
        <mxCell id="36SUy_8lJJQq4IlT1b3T-40" value="" style="endArrow=none;html=1;rounded=0;entryX=0;entryY=0;entryDx=0;entryDy=0;exitX=1;exitY=1;exitDx=0;exitDy=0;strokeColor=light-dark(#000000,#06B4FF);" parent="1" source="36SUy_8lJJQq4IlT1b3T-39" target="36SUy_8lJJQq4IlT1b3T-39" edge="1">
          <mxGeometry width="50" height="50" relative="1" as="geometry">
            <mxPoint x="460" y="770" as="sourcePoint" />
            <mxPoint x="510" y="720" as="targetPoint" />
          </mxGeometry>
        </mxCell>
        <mxCell id="36SUy_8lJJQq4IlT1b3T-41" value="" style="endArrow=none;html=1;rounded=0;strokeWidth=5;fillColor=#fa6800;strokeColor=light-dark(#C73500,#FF9A03);" parent="1" edge="1">
          <mxGeometry width="50" height="50" relative="1" as="geometry">
            <mxPoint x="815" y="720" as="sourcePoint" />
            <mxPoint x="815" y="600" as="targetPoint" />
          </mxGeometry>
        </mxCell>
        <mxCell id="36SUy_8lJJQq4IlT1b3T-42" value="" style="rounded=0;whiteSpace=wrap;html=1;strokeColor=light-dark(#000000,#06B4FF);" parent="1" vertex="1">
          <mxGeometry x="760" y="720" width="110" height="60" as="geometry" />
        </mxCell>
        <mxCell id="36SUy_8lJJQq4IlT1b3T-43" value="" style="endArrow=none;html=1;rounded=0;entryX=0;entryY=0;entryDx=0;entryDy=0;exitX=1;exitY=1;exitDx=0;exitDy=0;strokeColor=light-dark(#000000,#06B4FF);" parent="1" source="36SUy_8lJJQq4IlT1b3T-42" target="36SUy_8lJJQq4IlT1b3T-42" edge="1">
          <mxGeometry width="50" height="50" relative="1" as="geometry">
            <mxPoint x="715" y="770" as="sourcePoint" />
            <mxPoint x="765" y="720" as="targetPoint" />
          </mxGeometry>
        </mxCell>
        <mxCell id="36SUy_8lJJQq4IlT1b3T-44" value="" style="endArrow=none;html=1;rounded=0;strokeWidth=5;fillColor=#fa6800;strokeColor=light-dark(#C73500,#FF9A03);" parent="1" edge="1">
          <mxGeometry width="50" height="50" relative="1" as="geometry">
            <mxPoint x="1045" y="720" as="sourcePoint" />
            <mxPoint x="1045" y="600" as="targetPoint" />
          </mxGeometry>
        </mxCell>
        <mxCell id="36SUy_8lJJQq4IlT1b3T-45" value="" style="rounded=0;whiteSpace=wrap;html=1;strokeColor=light-dark(#000000,#06B4FF);" parent="1" vertex="1">
          <mxGeometry x="990" y="720" width="110" height="60" as="geometry" />
        </mxCell>
        <mxCell id="36SUy_8lJJQq4IlT1b3T-46" value="" style="endArrow=none;html=1;rounded=0;entryX=0;entryY=0;entryDx=0;entryDy=0;exitX=1;exitY=1;exitDx=0;exitDy=0;strokeColor=light-dark(#000000,#06B4FF);" parent="1" source="36SUy_8lJJQq4IlT1b3T-45" target="36SUy_8lJJQq4IlT1b3T-45" edge="1">
          <mxGeometry width="50" height="50" relative="1" as="geometry">
            <mxPoint x="945" y="770" as="sourcePoint" />
            <mxPoint x="995" y="720" as="targetPoint" />
          </mxGeometry>
        </mxCell>
        <mxCell id="36SUy_8lJJQq4IlT1b3T-47" value="" style="endArrow=none;html=1;rounded=0;strokeWidth=5;fillColor=#fa6800;strokeColor=light-dark(#C73500,#FF9A03);" parent="1" edge="1">
          <mxGeometry width="50" height="50" relative="1" as="geometry">
            <mxPoint x="1285" y="720" as="sourcePoint" />
            <mxPoint x="1285" y="600" as="targetPoint" />
          </mxGeometry>
        </mxCell>
        <mxCell id="36SUy_8lJJQq4IlT1b3T-48" value="" style="rounded=0;whiteSpace=wrap;html=1;strokeColor=light-dark(#000000,#06B4FF);" parent="1" vertex="1">
          <mxGeometry x="1230" y="720" width="110" height="60" as="geometry" />
        </mxCell>
        <mxCell id="36SUy_8lJJQq4IlT1b3T-49" value="" style="endArrow=none;html=1;rounded=0;entryX=0;entryY=0;entryDx=0;entryDy=0;exitX=1;exitY=1;exitDx=0;exitDy=0;strokeColor=light-dark(#000000,#06B4FF);" parent="1" source="36SUy_8lJJQq4IlT1b3T-48" target="36SUy_8lJJQq4IlT1b3T-48" edge="1">
          <mxGeometry width="50" height="50" relative="1" as="geometry">
            <mxPoint x="1185" y="770" as="sourcePoint" />
            <mxPoint x="1235" y="720" as="targetPoint" />
          </mxGeometry>
        </mxCell>
        <mxCell id="36SUy_8lJJQq4IlT1b3T-50" value="" style="endArrow=none;html=1;rounded=0;strokeWidth=5;fillColor=#fa6800;strokeColor=light-dark(#C73500,#FF9A03);" parent="1" edge="1">
          <mxGeometry width="50" height="50" relative="1" as="geometry">
            <mxPoint x="1540" y="720" as="sourcePoint" />
            <mxPoint x="1540" y="600" as="targetPoint" />
          </mxGeometry>
        </mxCell>
        <mxCell id="36SUy_8lJJQq4IlT1b3T-51" value="" style="rounded=0;whiteSpace=wrap;html=1;strokeColor=light-dark(#000000,#06B4FF);" parent="1" vertex="1">
          <mxGeometry x="1485" y="720" width="110" height="60" as="geometry" />
        </mxCell>
        <mxCell id="36SUy_8lJJQq4IlT1b3T-52" value="" style="endArrow=none;html=1;rounded=0;entryX=0;entryY=0;entryDx=0;entryDy=0;exitX=1;exitY=1;exitDx=0;exitDy=0;strokeColor=light-dark(#000000,#06B4FF);" parent="1" source="36SUy_8lJJQq4IlT1b3T-51" target="36SUy_8lJJQq4IlT1b3T-51" edge="1">
          <mxGeometry width="50" height="50" relative="1" as="geometry">
            <mxPoint x="1440" y="770" as="sourcePoint" />
            <mxPoint x="1490" y="720" as="targetPoint" />
          </mxGeometry>
        </mxCell>
        <mxCell id="36SUy_8lJJQq4IlT1b3T-53" value="" style="endArrow=none;html=1;rounded=0;strokeWidth=5;fillColor=#fa6800;strokeColor=light-dark(#C73500,#FF9A03);" parent="1" edge="1">
          <mxGeometry width="50" height="50" relative="1" as="geometry">
            <mxPoint x="1785" y="720" as="sourcePoint" />
            <mxPoint x="1785" y="600" as="targetPoint" />
          </mxGeometry>
        </mxCell>
        <mxCell id="36SUy_8lJJQq4IlT1b3T-54" value="" style="rounded=0;whiteSpace=wrap;html=1;strokeColor=light-dark(#000000,#06B4FF);" parent="1" vertex="1">
          <mxGeometry x="1730" y="720" width="110" height="60" as="geometry" />
        </mxCell>
        <mxCell id="36SUy_8lJJQq4IlT1b3T-55" value="" style="endArrow=none;html=1;rounded=0;entryX=0;entryY=0;entryDx=0;entryDy=0;exitX=1;exitY=1;exitDx=0;exitDy=0;strokeColor=light-dark(#000000,#06B4FF);" parent="1" source="36SUy_8lJJQq4IlT1b3T-54" target="36SUy_8lJJQq4IlT1b3T-54" edge="1">
          <mxGeometry width="50" height="50" relative="1" as="geometry">
            <mxPoint x="1685" y="770" as="sourcePoint" />
            <mxPoint x="1735" y="720" as="targetPoint" />
          </mxGeometry>
        </mxCell>
        <mxCell id="36SUy_8lJJQq4IlT1b3T-56" value="" style="endArrow=none;html=1;rounded=0;strokeWidth=5;fillColor=#fa6800;strokeColor=light-dark(#C73500,#FF9A03);" parent="1" edge="1">
          <mxGeometry width="50" height="50" relative="1" as="geometry">
            <mxPoint x="130" y="1000" as="sourcePoint" />
            <mxPoint x="1788" y="1000" as="targetPoint" />
          </mxGeometry>
        </mxCell>
        <mxCell id="36SUy_8lJJQq4IlT1b3T-57" value="" style="endArrow=none;html=1;rounded=0;strokeWidth=5;fillColor=#fa6800;strokeColor=light-dark(#C73500,#FF9A03);" parent="1" edge="1">
          <mxGeometry width="50" height="50" relative="1" as="geometry">
            <mxPoint x="320" y="1120" as="sourcePoint" />
            <mxPoint x="320" y="1000" as="targetPoint" />
          </mxGeometry>
        </mxCell>
        <mxCell id="36SUy_8lJJQq4IlT1b3T-58" value="" style="rounded=0;whiteSpace=wrap;html=1;strokeColor=light-dark(#000000,#06B4FF);" parent="1" vertex="1">
          <mxGeometry x="265" y="1120" width="110" height="60" as="geometry" />
        </mxCell>
        <mxCell id="36SUy_8lJJQq4IlT1b3T-59" value="" style="endArrow=none;html=1;rounded=0;entryX=0;entryY=0;entryDx=0;entryDy=0;exitX=1;exitY=1;exitDx=0;exitDy=0;strokeColor=light-dark(#000000,#06B4FF);" parent="1" source="36SUy_8lJJQq4IlT1b3T-58" target="36SUy_8lJJQq4IlT1b3T-58" edge="1">
          <mxGeometry width="50" height="50" relative="1" as="geometry">
            <mxPoint x="220" y="1170" as="sourcePoint" />
            <mxPoint x="270" y="1120" as="targetPoint" />
          </mxGeometry>
        </mxCell>
        <mxCell id="36SUy_8lJJQq4IlT1b3T-60" value="" style="endArrow=none;html=1;rounded=0;strokeWidth=5;fillColor=#fa6800;strokeColor=light-dark(#C73500,#FF9A03);" parent="1" edge="1">
          <mxGeometry width="50" height="50" relative="1" as="geometry">
            <mxPoint x="560" y="1120" as="sourcePoint" />
            <mxPoint x="560" y="1000" as="targetPoint" />
          </mxGeometry>
        </mxCell>
        <mxCell id="36SUy_8lJJQq4IlT1b3T-61" value="" style="rounded=0;whiteSpace=wrap;html=1;strokeColor=light-dark(#000000,#06B4FF);" parent="1" vertex="1">
          <mxGeometry x="505" y="1120" width="110" height="60" as="geometry" />
        </mxCell>
        <mxCell id="36SUy_8lJJQq4IlT1b3T-62" value="" style="endArrow=none;html=1;rounded=0;entryX=0;entryY=0;entryDx=0;entryDy=0;exitX=1;exitY=1;exitDx=0;exitDy=0;strokeColor=light-dark(#000000,#06B4FF);" parent="1" source="36SUy_8lJJQq4IlT1b3T-61" target="36SUy_8lJJQq4IlT1b3T-61" edge="1">
          <mxGeometry width="50" height="50" relative="1" as="geometry">
            <mxPoint x="460" y="1170" as="sourcePoint" />
            <mxPoint x="510" y="1120" as="targetPoint" />
          </mxGeometry>
        </mxCell>
        <mxCell id="36SUy_8lJJQq4IlT1b3T-63" value="" style="endArrow=none;html=1;rounded=0;strokeWidth=5;fillColor=#fa6800;strokeColor=light-dark(#C73500,#FF9A03);" parent="1" edge="1">
          <mxGeometry width="50" height="50" relative="1" as="geometry">
            <mxPoint x="815" y="1120" as="sourcePoint" />
            <mxPoint x="815" y="1000" as="targetPoint" />
          </mxGeometry>
        </mxCell>
        <mxCell id="36SUy_8lJJQq4IlT1b3T-64" value="" style="rounded=0;whiteSpace=wrap;html=1;strokeColor=light-dark(#000000,#06B4FF);" parent="1" vertex="1">
          <mxGeometry x="760" y="1120" width="110" height="60" as="geometry" />
        </mxCell>
        <mxCell id="36SUy_8lJJQq4IlT1b3T-65" value="" style="endArrow=none;html=1;rounded=0;entryX=0;entryY=0;entryDx=0;entryDy=0;exitX=1;exitY=1;exitDx=0;exitDy=0;strokeColor=light-dark(#000000,#06B4FF);" parent="1" source="36SUy_8lJJQq4IlT1b3T-64" target="36SUy_8lJJQq4IlT1b3T-64" edge="1">
          <mxGeometry width="50" height="50" relative="1" as="geometry">
            <mxPoint x="715" y="1170" as="sourcePoint" />
            <mxPoint x="765" y="1120" as="targetPoint" />
          </mxGeometry>
        </mxCell>
        <mxCell id="36SUy_8lJJQq4IlT1b3T-66" value="" style="endArrow=none;html=1;rounded=0;strokeWidth=5;fillColor=#fa6800;strokeColor=light-dark(#C73500,#FF9A03);" parent="1" edge="1">
          <mxGeometry width="50" height="50" relative="1" as="geometry">
            <mxPoint x="1045" y="1120" as="sourcePoint" />
            <mxPoint x="1045" y="1000" as="targetPoint" />
          </mxGeometry>
        </mxCell>
        <mxCell id="36SUy_8lJJQq4IlT1b3T-67" value="" style="rounded=0;whiteSpace=wrap;html=1;strokeColor=light-dark(#000000,#06B4FF);" parent="1" vertex="1">
          <mxGeometry x="990" y="1120" width="110" height="60" as="geometry" />
        </mxCell>
        <mxCell id="36SUy_8lJJQq4IlT1b3T-68" value="" style="endArrow=none;html=1;rounded=0;entryX=0;entryY=0;entryDx=0;entryDy=0;exitX=1;exitY=1;exitDx=0;exitDy=0;strokeColor=light-dark(#000000,#06B4FF);" parent="1" source="36SUy_8lJJQq4IlT1b3T-67" target="36SUy_8lJJQq4IlT1b3T-67" edge="1">
          <mxGeometry width="50" height="50" relative="1" as="geometry">
            <mxPoint x="945" y="1170" as="sourcePoint" />
            <mxPoint x="995" y="1120" as="targetPoint" />
          </mxGeometry>
        </mxCell>
        <mxCell id="36SUy_8lJJQq4IlT1b3T-69" value="" style="endArrow=none;html=1;rounded=0;strokeWidth=5;fillColor=#fa6800;strokeColor=light-dark(#C73500,#FF9A03);" parent="1" edge="1">
          <mxGeometry width="50" height="50" relative="1" as="geometry">
            <mxPoint x="1285" y="1120" as="sourcePoint" />
            <mxPoint x="1285" y="1000" as="targetPoint" />
          </mxGeometry>
        </mxCell>
        <mxCell id="36SUy_8lJJQq4IlT1b3T-70" value="" style="rounded=0;whiteSpace=wrap;html=1;strokeColor=light-dark(#000000,#06B4FF);" parent="1" vertex="1">
          <mxGeometry x="1230" y="1120" width="110" height="60" as="geometry" />
        </mxCell>
        <mxCell id="36SUy_8lJJQq4IlT1b3T-71" value="" style="endArrow=none;html=1;rounded=0;entryX=0;entryY=0;entryDx=0;entryDy=0;exitX=1;exitY=1;exitDx=0;exitDy=0;strokeColor=light-dark(#000000,#06B4FF);" parent="1" source="36SUy_8lJJQq4IlT1b3T-70" target="36SUy_8lJJQq4IlT1b3T-70" edge="1">
          <mxGeometry width="50" height="50" relative="1" as="geometry">
            <mxPoint x="1185" y="1170" as="sourcePoint" />
            <mxPoint x="1235" y="1120" as="targetPoint" />
          </mxGeometry>
        </mxCell>
        <mxCell id="36SUy_8lJJQq4IlT1b3T-72" value="" style="endArrow=none;html=1;rounded=0;strokeWidth=5;fillColor=#fa6800;strokeColor=light-dark(#C73500,#FF9A03);" parent="1" edge="1">
          <mxGeometry width="50" height="50" relative="1" as="geometry">
            <mxPoint x="1540" y="1120" as="sourcePoint" />
            <mxPoint x="1540" y="1000" as="targetPoint" />
          </mxGeometry>
        </mxCell>
        <mxCell id="36SUy_8lJJQq4IlT1b3T-73" value="" style="rounded=0;whiteSpace=wrap;html=1;strokeColor=light-dark(#000000,#06B4FF);" parent="1" vertex="1">
          <mxGeometry x="1485" y="1120" width="110" height="60" as="geometry" />
        </mxCell>
        <mxCell id="36SUy_8lJJQq4IlT1b3T-74" value="" style="endArrow=none;html=1;rounded=0;entryX=0;entryY=0;entryDx=0;entryDy=0;exitX=1;exitY=1;exitDx=0;exitDy=0;strokeColor=light-dark(#000000,#06B4FF);" parent="1" source="36SUy_8lJJQq4IlT1b3T-73" target="36SUy_8lJJQq4IlT1b3T-73" edge="1">
          <mxGeometry width="50" height="50" relative="1" as="geometry">
            <mxPoint x="1440" y="1170" as="sourcePoint" />
            <mxPoint x="1490" y="1120" as="targetPoint" />
          </mxGeometry>
        </mxCell>
        <mxCell id="36SUy_8lJJQq4IlT1b3T-75" value="" style="endArrow=none;html=1;rounded=0;strokeWidth=5;fillColor=#fa6800;strokeColor=light-dark(#C73500,#FF9A03);" parent="1" edge="1">
          <mxGeometry width="50" height="50" relative="1" as="geometry">
            <mxPoint x="1785" y="1120" as="sourcePoint" />
            <mxPoint x="1785" y="1000" as="targetPoint" />
          </mxGeometry>
        </mxCell>
        <mxCell id="36SUy_8lJJQq4IlT1b3T-76" value="" style="rounded=0;whiteSpace=wrap;html=1;strokeColor=light-dark(#000000,#06B4FF);" parent="1" vertex="1">
          <mxGeometry x="1730" y="1120" width="110" height="60" as="geometry" />
        </mxCell>
        <mxCell id="36SUy_8lJJQq4IlT1b3T-77" value="" style="endArrow=none;html=1;rounded=0;entryX=0;entryY=0;entryDx=0;entryDy=0;exitX=1;exitY=1;exitDx=0;exitDy=0;strokeColor=light-dark(#000000,#06B4FF);" parent="1" source="36SUy_8lJJQq4IlT1b3T-76" target="36SUy_8lJJQq4IlT1b3T-76" edge="1">
          <mxGeometry width="50" height="50" relative="1" as="geometry">
            <mxPoint x="1685" y="1170" as="sourcePoint" />
            <mxPoint x="1735" y="1120" as="targetPoint" />
          </mxGeometry>
        </mxCell>
        <mxCell id="36SUy_8lJJQq4IlT1b3T-78" value="" style="endArrow=none;html=1;rounded=0;strokeWidth=5;fillColor=#fa6800;strokeColor=light-dark(#C73500,#FF9A03);" parent="1" edge="1">
          <mxGeometry width="50" height="50" relative="1" as="geometry">
            <mxPoint x="131.66999999999996" y="1440" as="sourcePoint" />
            <mxPoint x="1789.67" y="1440" as="targetPoint" />
          </mxGeometry>
        </mxCell>
        <mxCell id="36SUy_8lJJQq4IlT1b3T-79" value="" style="endArrow=none;html=1;rounded=0;strokeWidth=5;fillColor=#fa6800;strokeColor=light-dark(#C73500,#FF9A03);" parent="1" edge="1">
          <mxGeometry width="50" height="50" relative="1" as="geometry">
            <mxPoint x="321.66999999999996" y="1560" as="sourcePoint" />
            <mxPoint x="321.66999999999996" y="1440" as="targetPoint" />
          </mxGeometry>
        </mxCell>
        <mxCell id="36SUy_8lJJQq4IlT1b3T-80" value="" style="rounded=0;whiteSpace=wrap;html=1;strokeColor=light-dark(#000000,#06B4FF);" parent="1" vertex="1">
          <mxGeometry x="266.66999999999996" y="1560" width="110" height="60" as="geometry" />
        </mxCell>
        <mxCell id="36SUy_8lJJQq4IlT1b3T-81" value="" style="endArrow=none;html=1;rounded=0;entryX=0;entryY=0;entryDx=0;entryDy=0;exitX=1;exitY=1;exitDx=0;exitDy=0;strokeColor=light-dark(#000000,#06B4FF);" parent="1" source="36SUy_8lJJQq4IlT1b3T-80" target="36SUy_8lJJQq4IlT1b3T-80" edge="1">
          <mxGeometry width="50" height="50" relative="1" as="geometry">
            <mxPoint x="221.66999999999996" y="1610" as="sourcePoint" />
            <mxPoint x="271.66999999999996" y="1560" as="targetPoint" />
          </mxGeometry>
        </mxCell>
        <mxCell id="36SUy_8lJJQq4IlT1b3T-82" value="" style="endArrow=none;html=1;rounded=0;strokeWidth=5;fillColor=#fa6800;strokeColor=light-dark(#C73500,#FF9A03);" parent="1" edge="1">
          <mxGeometry width="50" height="50" relative="1" as="geometry">
            <mxPoint x="561.67" y="1560" as="sourcePoint" />
            <mxPoint x="561.67" y="1440" as="targetPoint" />
          </mxGeometry>
        </mxCell>
        <mxCell id="36SUy_8lJJQq4IlT1b3T-83" value="" style="rounded=0;whiteSpace=wrap;html=1;strokeColor=light-dark(#000000,#06B4FF);" parent="1" vertex="1">
          <mxGeometry x="506.66999999999996" y="1560" width="110" height="60" as="geometry" />
        </mxCell>
        <mxCell id="36SUy_8lJJQq4IlT1b3T-84" value="" style="endArrow=none;html=1;rounded=0;entryX=0;entryY=0;entryDx=0;entryDy=0;exitX=1;exitY=1;exitDx=0;exitDy=0;strokeColor=light-dark(#000000,#06B4FF);" parent="1" source="36SUy_8lJJQq4IlT1b3T-83" target="36SUy_8lJJQq4IlT1b3T-83" edge="1">
          <mxGeometry width="50" height="50" relative="1" as="geometry">
            <mxPoint x="461.66999999999996" y="1610" as="sourcePoint" />
            <mxPoint x="511.66999999999996" y="1560" as="targetPoint" />
          </mxGeometry>
        </mxCell>
        <mxCell id="36SUy_8lJJQq4IlT1b3T-85" value="" style="endArrow=none;html=1;rounded=0;strokeWidth=5;fillColor=#fa6800;strokeColor=light-dark(#C73500,#FF9A03);" parent="1" edge="1">
          <mxGeometry width="50" height="50" relative="1" as="geometry">
            <mxPoint x="816.67" y="1560" as="sourcePoint" />
            <mxPoint x="816.67" y="1440" as="targetPoint" />
          </mxGeometry>
        </mxCell>
        <mxCell id="36SUy_8lJJQq4IlT1b3T-86" value="" style="rounded=0;whiteSpace=wrap;html=1;strokeColor=light-dark(#000000,#06B4FF);" parent="1" vertex="1">
          <mxGeometry x="761.67" y="1560" width="110" height="60" as="geometry" />
        </mxCell>
        <mxCell id="36SUy_8lJJQq4IlT1b3T-87" value="" style="endArrow=none;html=1;rounded=0;entryX=0;entryY=0;entryDx=0;entryDy=0;exitX=1;exitY=1;exitDx=0;exitDy=0;strokeColor=light-dark(#000000,#06B4FF);" parent="1" source="36SUy_8lJJQq4IlT1b3T-86" target="36SUy_8lJJQq4IlT1b3T-86" edge="1">
          <mxGeometry width="50" height="50" relative="1" as="geometry">
            <mxPoint x="716.67" y="1610" as="sourcePoint" />
            <mxPoint x="766.67" y="1560" as="targetPoint" />
          </mxGeometry>
        </mxCell>
        <mxCell id="36SUy_8lJJQq4IlT1b3T-88" value="" style="endArrow=none;html=1;rounded=0;strokeWidth=5;fillColor=#fa6800;strokeColor=light-dark(#C73500,#FF9A03);" parent="1" edge="1">
          <mxGeometry width="50" height="50" relative="1" as="geometry">
            <mxPoint x="1046.67" y="1560" as="sourcePoint" />
            <mxPoint x="1046.67" y="1440" as="targetPoint" />
          </mxGeometry>
        </mxCell>
        <mxCell id="36SUy_8lJJQq4IlT1b3T-89" value="" style="rounded=0;whiteSpace=wrap;html=1;strokeColor=light-dark(#000000,#06B4FF);" parent="1" vertex="1">
          <mxGeometry x="991.67" y="1560" width="110" height="60" as="geometry" />
        </mxCell>
        <mxCell id="36SUy_8lJJQq4IlT1b3T-90" value="" style="endArrow=none;html=1;rounded=0;entryX=0;entryY=0;entryDx=0;entryDy=0;exitX=1;exitY=1;exitDx=0;exitDy=0;strokeColor=light-dark(#000000,#06B4FF);" parent="1" source="36SUy_8lJJQq4IlT1b3T-89" target="36SUy_8lJJQq4IlT1b3T-89" edge="1">
          <mxGeometry width="50" height="50" relative="1" as="geometry">
            <mxPoint x="946.67" y="1610" as="sourcePoint" />
            <mxPoint x="996.67" y="1560" as="targetPoint" />
          </mxGeometry>
        </mxCell>
        <mxCell id="36SUy_8lJJQq4IlT1b3T-91" value="" style="endArrow=none;html=1;rounded=0;strokeWidth=5;fillColor=#fa6800;strokeColor=light-dark(#C73500,#FF9A03);" parent="1" edge="1">
          <mxGeometry width="50" height="50" relative="1" as="geometry">
            <mxPoint x="1286.67" y="1560" as="sourcePoint" />
            <mxPoint x="1286.67" y="1440" as="targetPoint" />
          </mxGeometry>
        </mxCell>
        <mxCell id="36SUy_8lJJQq4IlT1b3T-92" value="" style="rounded=0;whiteSpace=wrap;html=1;strokeColor=light-dark(#000000,#06B4FF);" parent="1" vertex="1">
          <mxGeometry x="1231.67" y="1560" width="110" height="60" as="geometry" />
        </mxCell>
        <mxCell id="36SUy_8lJJQq4IlT1b3T-93" value="" style="endArrow=none;html=1;rounded=0;entryX=0;entryY=0;entryDx=0;entryDy=0;exitX=1;exitY=1;exitDx=0;exitDy=0;strokeColor=light-dark(#000000,#06B4FF);" parent="1" source="36SUy_8lJJQq4IlT1b3T-92" target="36SUy_8lJJQq4IlT1b3T-92" edge="1">
          <mxGeometry width="50" height="50" relative="1" as="geometry">
            <mxPoint x="1186.67" y="1610" as="sourcePoint" />
            <mxPoint x="1236.67" y="1560" as="targetPoint" />
          </mxGeometry>
        </mxCell>
        <mxCell id="36SUy_8lJJQq4IlT1b3T-94" value="" style="endArrow=none;html=1;rounded=0;strokeWidth=5;fillColor=#fa6800;strokeColor=light-dark(#C73500,#FF9A03);" parent="1" edge="1">
          <mxGeometry width="50" height="50" relative="1" as="geometry">
            <mxPoint x="1541.67" y="1560" as="sourcePoint" />
            <mxPoint x="1541.67" y="1440" as="targetPoint" />
          </mxGeometry>
        </mxCell>
        <mxCell id="36SUy_8lJJQq4IlT1b3T-95" value="" style="rounded=0;whiteSpace=wrap;html=1;strokeColor=light-dark(#000000,#06B4FF);" parent="1" vertex="1">
          <mxGeometry x="1486.67" y="1560" width="110" height="60" as="geometry" />
        </mxCell>
        <mxCell id="36SUy_8lJJQq4IlT1b3T-96" value="" style="endArrow=none;html=1;rounded=0;entryX=0;entryY=0;entryDx=0;entryDy=0;exitX=1;exitY=1;exitDx=0;exitDy=0;strokeColor=light-dark(#000000,#06B4FF);" parent="1" source="36SUy_8lJJQq4IlT1b3T-95" target="36SUy_8lJJQq4IlT1b3T-95" edge="1">
          <mxGeometry width="50" height="50" relative="1" as="geometry">
            <mxPoint x="1441.67" y="1610" as="sourcePoint" />
            <mxPoint x="1491.67" y="1560" as="targetPoint" />
          </mxGeometry>
        </mxCell>
        <mxCell id="36SUy_8lJJQq4IlT1b3T-97" value="" style="endArrow=none;html=1;rounded=0;strokeWidth=5;fillColor=#fa6800;strokeColor=light-dark(#C73500,#FF9A03);" parent="1" edge="1">
          <mxGeometry width="50" height="50" relative="1" as="geometry">
            <mxPoint x="1786.67" y="1560" as="sourcePoint" />
            <mxPoint x="1786.67" y="1440" as="targetPoint" />
          </mxGeometry>
        </mxCell>
        <mxCell id="36SUy_8lJJQq4IlT1b3T-98" value="" style="rounded=0;whiteSpace=wrap;html=1;strokeColor=light-dark(#000000,#06B4FF);" parent="1" vertex="1">
          <mxGeometry x="1731.67" y="1560" width="110" height="60" as="geometry" />
        </mxCell>
        <mxCell id="36SUy_8lJJQq4IlT1b3T-99" value="" style="endArrow=none;html=1;rounded=0;entryX=0;entryY=0;entryDx=0;entryDy=0;exitX=1;exitY=1;exitDx=0;exitDy=0;strokeColor=light-dark(#000000,#06B4FF);" parent="1" source="36SUy_8lJJQq4IlT1b3T-98" target="36SUy_8lJJQq4IlT1b3T-98" edge="1">
          <mxGeometry width="50" height="50" relative="1" as="geometry">
            <mxPoint x="1686.67" y="1610" as="sourcePoint" />
            <mxPoint x="1736.67" y="1560" as="targetPoint" />
          </mxGeometry>
        </mxCell>
        <mxCell id="36SUy_8lJJQq4IlT1b3T-100" value="" style="endArrow=none;html=1;rounded=0;strokeWidth=5;fillColor=#fa6800;strokeColor=light-dark(#C73500,#FF9A03);" parent="1" edge="1">
          <mxGeometry width="50" height="50" relative="1" as="geometry">
            <mxPoint x="160" y="880" as="sourcePoint" />
            <mxPoint x="880" y="880" as="targetPoint" />
            <Array as="points" />
          </mxGeometry>
        </mxCell>
        <mxCell id="36SUy_8lJJQq4IlT1b3T-102" value="" style="rounded=0;whiteSpace=wrap;html=1;strokeColor=light-dark(#000000,#06B4FF);" parent="1" vertex="1">
          <mxGeometry x="881.6700000000001" y="850" width="110" height="60" as="geometry" />
        </mxCell>
        <mxCell id="36SUy_8lJJQq4IlT1b3T-103" value="" style="endArrow=none;html=1;rounded=0;entryX=0;entryY=0;entryDx=0;entryDy=0;exitX=1;exitY=1;exitDx=0;exitDy=0;strokeColor=light-dark(#000000,#06B4FF);" parent="1" source="36SUy_8lJJQq4IlT1b3T-102" target="36SUy_8lJJQq4IlT1b3T-102" edge="1">
          <mxGeometry width="50" height="50" relative="1" as="geometry">
            <mxPoint x="836.6700000000001" y="900" as="sourcePoint" />
            <mxPoint x="886.6700000000001" y="850" as="targetPoint" />
          </mxGeometry>
        </mxCell>
        <mxCell id="36SUy_8lJJQq4IlT1b3T-104" value="&lt;font style=&quot;color: light-dark(rgb(0, 0, 0), rgb(6, 180, 255)); font-size: 24px;&quot;&gt;&lt;b&gt;AP&lt;/b&gt;&lt;/font&gt;" style="text;html=1;align=center;verticalAlign=middle;resizable=0;points=[];autosize=1;strokeColor=none;fillColor=none;" parent="1" vertex="1">
          <mxGeometry x="906.67" y="805" width="60" height="40" as="geometry" />
        </mxCell>
        <mxCell id="x_T9KYsaE6YWxML6WS7I-1" value="" style="endArrow=none;html=1;rounded=0;strokeWidth=5;fillColor=#fa6800;strokeColor=light-dark(#C73500,#FFF600);" edge="1" parent="1" source="36SUy_8lJJQq4IlT1b3T-25">
          <mxGeometry width="50" height="50" relative="1" as="geometry">
            <mxPoint x="560" y="200" as="sourcePoint" />
            <mxPoint x="560" y="80" as="targetPoint" />
          </mxGeometry>
        </mxCell>
        <mxCell id="x_T9KYsaE6YWxML6WS7I-6" value="" style="endArrow=none;html=1;rounded=0;strokeWidth=5;fillColor=#fa6800;strokeColor=light-dark(#C73500,#FF9A03);" edge="1" parent="1">
          <mxGeometry width="50" height="50" relative="1" as="geometry">
            <mxPoint x="20" y="880" as="sourcePoint" />
            <mxPoint x="20" y="880" as="targetPoint" />
          </mxGeometry>
        </mxCell>
        <mxCell id="x_T9KYsaE6YWxML6WS7I-7" value="" style="endArrow=none;html=1;rounded=0;strokeWidth=5;fillColor=#fa6800;strokeColor=light-dark(#C73500,#FF9A03);" edge="1" parent="1">
          <mxGeometry width="50" height="50" relative="1" as="geometry">
            <mxPoint x="20" y="880" as="sourcePoint" />
            <mxPoint x="20" y="180" as="targetPoint" />
          </mxGeometry>
        </mxCell>
        <mxCell id="x_T9KYsaE6YWxML6WS7I-8" value="" style="endArrow=none;html=1;rounded=0;strokeWidth=5;fillColor=#fa6800;strokeColor=light-dark(#C73500,#FF9A03);entryX=0;entryY=0.167;entryDx=0;entryDy=0;entryPerimeter=0;" edge="1" parent="1" target="36SUy_8lJJQq4IlT1b3T-27">
          <mxGeometry width="50" height="50" relative="1" as="geometry">
            <mxPoint x="20" y="180" as="sourcePoint" />
            <mxPoint x="180" y="180" as="targetPoint" />
          </mxGeometry>
        </mxCell>
        <mxCell id="x_T9KYsaE6YWxML6WS7I-12" value="" style="endArrow=none;html=1;rounded=0;strokeWidth=5;fillColor=#fa6800;strokeColor=light-dark(#C73500,#FF9A03);" edge="1" parent="1" source="x_T9KYsaE6YWxML6WS7I-13" target="x_T9KYsaE6YWxML6WS7I-11">
          <mxGeometry width="50" height="50" relative="1" as="geometry">
            <mxPoint x="130" y="1440" as="sourcePoint" />
            <mxPoint x="130" y="200" as="targetPoint" />
          </mxGeometry>
        </mxCell>
        <mxCell id="x_T9KYsaE6YWxML6WS7I-11" value="" style="ellipse;whiteSpace=wrap;html=1;aspect=fixed;strokeColor=light-dark(#000000,#FF9A03);fillColor=light-dark(#FFFFFF,#FF9A03);" vertex="1" parent="1">
          <mxGeometry x="120" y="590" width="20" height="20" as="geometry" />
        </mxCell>
        <mxCell id="x_T9KYsaE6YWxML6WS7I-14" value="" style="endArrow=none;html=1;rounded=0;strokeWidth=5;fillColor=#fa6800;strokeColor=light-dark(#C73500,#FF9A03);" edge="1" parent="1" source="x_T9KYsaE6YWxML6WS7I-15" target="x_T9KYsaE6YWxML6WS7I-13">
          <mxGeometry width="50" height="50" relative="1" as="geometry">
            <mxPoint x="130" y="1440" as="sourcePoint" />
            <mxPoint x="130" y="610" as="targetPoint" />
          </mxGeometry>
        </mxCell>
        <mxCell id="x_T9KYsaE6YWxML6WS7I-13" value="" style="ellipse;whiteSpace=wrap;html=1;aspect=fixed;strokeColor=light-dark(#000000,#FF9A03);fillColor=light-dark(#FFFFFF,#FF9A03);rotation=-5;" vertex="1" parent="1">
          <mxGeometry x="120" y="990" width="20" height="20" as="geometry" />
        </mxCell>
        <mxCell id="x_T9KYsaE6YWxML6WS7I-16" value="" style="endArrow=none;html=1;rounded=0;strokeWidth=5;fillColor=#fa6800;strokeColor=light-dark(#C73500,#FF9A03);" edge="1" parent="1" target="x_T9KYsaE6YWxML6WS7I-15">
          <mxGeometry width="50" height="50" relative="1" as="geometry">
            <mxPoint x="130" y="1440" as="sourcePoint" />
            <mxPoint x="130" y="1010" as="targetPoint" />
          </mxGeometry>
        </mxCell>
        <mxCell id="x_T9KYsaE6YWxML6WS7I-15" value="" style="ellipse;whiteSpace=wrap;html=1;aspect=fixed;strokeColor=light-dark(#000000,#FF9A03);fillColor=light-dark(#FFFFFF,#FF9A03);" vertex="1" parent="1">
          <mxGeometry x="120" y="1430" width="20" height="20" as="geometry" />
        </mxCell>
        <mxCell id="x_T9KYsaE6YWxML6WS7I-17" value="" style="rounded=0;whiteSpace=wrap;html=1;fillColor=light-dark(#E51400,#FF0000);fontColor=#ffffff;strokeColor=light-dark(#B20000,#FF0010);" vertex="1" parent="1">
          <mxGeometry x="29.590000000000003" y="170" width="30" height="20" as="geometry" />
        </mxCell>
        <mxCell id="x_T9KYsaE6YWxML6WS7I-20" value="" style="endArrow=none;html=1;rounded=0;strokeWidth=5;fillColor=#fa6800;strokeColor=light-dark(#C73500,#FF9A03);" edge="1" parent="1" target="x_T9KYsaE6YWxML6WS7I-19">
          <mxGeometry width="50" height="50" relative="1" as="geometry">
            <mxPoint x="20" y="880" as="sourcePoint" />
            <mxPoint x="880" y="880" as="targetPoint" />
            <Array as="points" />
          </mxGeometry>
        </mxCell>
        <mxCell id="x_T9KYsaE6YWxML6WS7I-21" value="" style="endArrow=none;html=1;rounded=0;strokeWidth=5;fillColor=#fa6800;strokeColor=light-dark(#C73500,#FFF600);" edge="1" parent="1" target="36SUy_8lJJQq4IlT1b3T-25">
          <mxGeometry width="50" height="50" relative="1" as="geometry">
            <mxPoint x="560" y="200" as="sourcePoint" />
            <mxPoint x="560" y="80" as="targetPoint" />
          </mxGeometry>
        </mxCell>
        <mxCell id="36SUy_8lJJQq4IlT1b3T-25" value="" style="rounded=0;whiteSpace=wrap;html=1;fillColor=light-dark(#E51400,#FF0000);fontColor=#ffffff;strokeColor=light-dark(#B20000,#FF0010);" parent="1" vertex="1">
          <mxGeometry x="537" y="112.17" width="46" height="28.83" as="geometry" />
        </mxCell>
        <mxCell id="x_T9KYsaE6YWxML6WS7I-22" value="" style="endArrow=none;html=1;rounded=0;strokeWidth=5;fillColor=#fa6800;strokeColor=light-dark(#C73500,#FF9A03);" edge="1" parent="1">
          <mxGeometry width="50" height="50" relative="1" as="geometry">
            <mxPoint x="160" y="880" as="sourcePoint" />
            <mxPoint x="160" y="850" as="targetPoint" />
          </mxGeometry>
        </mxCell>
        <mxCell id="x_T9KYsaE6YWxML6WS7I-23" value="" style="endArrow=none;html=1;rounded=0;strokeWidth=5;fillColor=#fa6800;strokeColor=light-dark(#C73500,#FF9A03);" edge="1" parent="1">
          <mxGeometry width="50" height="50" relative="1" as="geometry">
            <mxPoint x="100" y="880" as="sourcePoint" />
            <mxPoint x="100" y="850" as="targetPoint" />
          </mxGeometry>
        </mxCell>
        <mxCell id="x_T9KYsaE6YWxML6WS7I-24" value="" style="endArrow=none;html=1;rounded=0;strokeWidth=5;fillColor=#fa6800;strokeColor=light-dark(#C73500,#FF9A03);" edge="1" parent="1">
          <mxGeometry width="50" height="50" relative="1" as="geometry">
            <mxPoint x="160" y="850" as="sourcePoint" />
            <mxPoint x="100" y="850" as="targetPoint" />
          </mxGeometry>
        </mxCell>
        <mxCell id="x_T9KYsaE6YWxML6WS7I-25" value="" style="endArrow=none;html=1;rounded=0;strokeWidth=5;fillColor=#fa6800;strokeColor=light-dark(#C73500,#FF9A03);" edge="1" parent="1">
          <mxGeometry width="50" height="50" relative="1" as="geometry">
            <mxPoint x="100" y="879.71" as="sourcePoint" />
            <mxPoint x="40" y="879.71" as="targetPoint" />
          </mxGeometry>
        </mxCell>
        <mxCell id="x_T9KYsaE6YWxML6WS7I-19" value="" style="rounded=0;whiteSpace=wrap;html=1;fillColor=light-dark(#E51400,#FF0000);fontColor=#ffffff;strokeColor=light-dark(#B20000,#FF0010);" vertex="1" parent="1">
          <mxGeometry x="29.590000000000003" y="870" width="30" height="20" as="geometry" />
        </mxCell>
      </root>
    </mxGraphModel>
  </diagram>
</mxfile>
